Coordinates
version=1
nRows=17
nColumns=40
inDegrees=yes

Units are S.I. units (second, meters, Newtons, ...)
Angles are in degrees.

endheader
time	pelvis_tilt	pelvis_list	pelvis_rotation	pelvis_tx	pelvis_ty	pelvis_tz	hip_flexion_r	hip_adduction_r	hip_rotation_r	knee_angle_r	knee_angle_r_beta	ankle_angle_r	subtalar_angle_r	mtp_angle_r	hip_flexion_l	hip_adduction_l	hip_rotation_l	knee_angle_l	knee_angle_l_beta	ankle_angle_l	subtalar_angle_l	mtp_angle_l	lumbar_extension	lumbar_bending	lumbar_rotation	arm_flex_r	arm_add_r	arm_rot_r	elbow_flex_r	pro_sup_r	wrist_flex_r	wrist_dev_r	arm_flex_l	arm_add_l	arm_rot_l	elbow_flex_l	pro_sup_l	wrist_flex_l	wrist_dev_l
     44.11000000	     -5.51658281	     -4.46694445	      0.02256509	      0.98093754	      0.91658347	      0.39492886	     12.52918245	     -6.52665223	     -7.77540866	     49.67354010	     49.67354010	      3.93753051	     -8.85101030	    -18.73214349	     22.15744813	     -2.61595276	     -1.17169023	     32.36269754	     32.36269754	     18.18675100	    -17.67385779	      9.90068785	     -9.69508057	      5.76463815	      4.02987367	     25.76790547	    -14.13315590	    -21.60215687	     28.36339567	     46.29885160	      0.00000000	      0.00000000	     21.88992970	    -14.90644997	      9.74592206	     38.84520342	     46.03711462	      0.00000000	      0.00000000
     44.12978571	     -5.39495784	     -4.51621552	     -0.54372435	      0.98003021	      0.91667531	      0.39341958	     14.95021048	     -6.55840524	     -6.62408300	     53.46755499	     53.46755499	      2.14405775	    -10.86750554	    -17.74231813	     21.51238345	     -2.71256849	     -1.67520947	     32.26266669	     32.26266669	     18.61333082	    -17.65043189	      9.79335379	     -9.90616024	      5.97553048	      3.45104958	     22.87958655	    -13.61123769	    -21.68028281	     27.30893547	     46.32825167	      0.00000000	      0.00000000	     22.91625713	    -15.41932823	      9.42299417	     39.59268475	     46.09106901	      0.00000000	      0.00000000
     44.14957143	     -5.31483543	     -4.70537586	     -1.14110555	      0.97906667	      0.91683395	      0.39216508	     17.31748940	     -6.18845240	     -5.36866035	     56.81994742	     56.81994742	      0.71447953	    -12.92128218	    -15.63379074	     20.89775960	     -2.97911372	     -2.17852409	     32.16133822	     32.16133822	     19.04956082	    -17.56528372	      9.63952516	    -10.10624130	      6.37135052	      3.23251088	     19.74090744	    -13.36740112	    -21.77779632	     26.22571572	     46.36121143	      0.00000000	      0.00000000	     24.00831644	    -15.77524004	      8.98608116	     40.72627539	     46.16185070	      0.00000000	      0.00000000
     44.16935714	     -5.18810029	     -4.81427649	     -1.74913403	      0.97815953	      0.91727373	      0.39108108	     19.45120666	     -5.88535975	     -4.31770268	     59.56117128	     59.56117128	     -0.16780370	    -14.20484682	    -13.17833045	     20.15295241	     -3.16552707	     -2.74453930	     31.93452255	     31.93452255	     19.41327545	    -17.46168211	      9.48138256	    -10.37776909	      6.63019438	      2.98195716	     16.55901258	    -13.09638458	    -21.87048822	     25.16148385	     46.39280738	      0.00000000	      0.00000000	     25.19783205	    -16.23793472	      8.48222055	     41.89913441	     46.24020128	      0.00000000	      0.00000000
     44.18914286	     -5.02322208	     -5.22417040	     -2.37499255	      0.97733769	      0.91812609	      0.39044514	     21.36546496	     -5.15293607	     -3.49444680	     61.71746287	     61.71746287	      0.76137217	    -14.23603797	     -6.94604745	     19.30759071	     -3.70454898	     -3.28610538	     31.62874727	     31.62874727	     19.69238566	    -17.33022350	      9.00773748	    -10.79552782	      7.21073915	      3.44155495	     12.92749285	    -13.21042607	    -21.99068691	     24.41153841	     46.42488908	      0.00000000	      0.00000000	     26.35677917	    -16.27501290	      7.51513905	     44.09548715	     46.37679185	      0.00000000	      0.00000000
     44.20892857	     -4.96691568	     -5.21637761	     -2.99109762	      0.97639271	      0.91906742	      0.38984369	     23.35046247	     -5.00296846	     -2.84609040	     63.31072272	     63.31072272	      2.63577709	    -13.32929006	     -0.26275119	     18.37596702	     -3.76194008	     -3.95310544	     30.87428343	     30.87428343	     19.62931325	    -17.23586975	      8.29144066	    -10.99485313	      7.37283680	      2.64194876	     10.13503588	    -12.66148984	    -21.85578802	     24.21321483	     46.44781388	      0.00000000	      0.00000000	     27.07864232	    -17.10050659	      6.19465158	     45.31496561	     46.53670599	      0.00000000	      0.00000000
     44.22871429	     -4.95796127	     -5.33509066	     -3.66850718	      0.97548513	      0.92045736	      0.38975267	     24.88057824	     -4.55054541	     -2.25512135	     63.40554696	     63.40554696	      2.69509688	    -13.83823863	     -0.03385999	     17.42351995	     -3.97050793	     -4.60926583	     30.02495036	     30.02495036	     19.71966410	    -17.04707809	      8.33659187	    -11.20113021	      7.65195602	      2.56499959	      7.40091569	    -12.46943853	    -21.84570994	     23.01808745	     46.48599920	      0.00000000	      0.00000000	     28.30689695	    -17.61877726	      5.73797183	     46.31184390	     46.60353532	      0.00000000	      0.00000000
     44.24850000	     -4.98299840	     -5.51015884	     -4.37124974	      0.97456403	      0.92204847	      0.39013630	     26.21281284	     -4.06951218	     -1.91048227	     62.61073332	     62.61073332	      3.16664644	    -13.88234448	     -0.05893508	     16.40975117	     -4.24998202	     -5.28903812	     28.99647555	     28.99647555	     19.78750389	    -16.83808029	      8.27290557	    -11.32897312	      7.94114300	      2.48325063	      4.81470851	    -12.26086767	    -21.84648618	     22.02689772	     46.51844272	      0.00000000	      0.00000000	     29.45195855	    -18.19641214	      5.18309170	     47.45746125	     46.67854839	      0.00000000	      0.00000000
     44.26828571	     -5.07237773	     -5.67810678	     -5.09500706	      0.97357285	      0.92384401	      0.39093618	     27.35057070	     -3.57046841	     -1.67913265	     60.86145820	     60.86145820	      3.88290359	    -13.58997557	     -0.47209119	     15.38078769	     -4.53237520	     -6.01283871	     27.79486636	     27.79486636	     19.68189882	    -16.59083711	      8.14810522	    -11.43988394	      8.19318371	      2.46151940	      2.36759705	    -12.05028642	    -21.84038466	     21.21032327	     46.54584307	      0.00000000	      0.00000000	     30.53819352	    -18.78772536	      4.51728717	     48.79915104	     46.76362191	      0.00000000	      0.00000000
     44.28807143	     -5.22828981	     -5.84581718	     -5.84272651	      0.97255192	      0.92567697	      0.39212747	     28.27473177	     -3.07920348	     -1.61351525	     58.17340600	     58.17340600	      4.64529855	    -12.93486647	     -1.37474817	     14.34958426	     -4.82320004	     -6.78680388	     26.45642813	     26.45642813	     19.47913387	    -16.31519690	      7.92527069	    -11.51394497	      8.44814783	      2.46590421	      0.07916713	    -11.81705883	    -21.82116114	     20.59021641	     46.56679078	      0.00000000	      0.00000000	     31.55361559	    -19.44206015	      3.72654309	     50.30755521	     46.85968638	      0.00000000	      0.00000000
     44.30785714	     -5.63898859	     -6.06338889	     -6.56797239	      0.97133089	      0.92712042	      0.39372548	     29.18485085	     -2.46806561	     -1.66936944	     54.64195873	     54.64195873	      5.54578411	    -11.91032506	     -1.87485533	     13.67554146	     -5.19880558	     -7.45258076	     25.25363152	     25.25363152	     19.35739853	    -16.03632642	      7.95631277	    -11.26645681	      8.75569115	      2.18732291	     -1.86907849	    -11.56551917	    -21.84342939	     20.03175989	     46.58166768	      0.00000000	      0.00000000	     32.56837545	    -20.33154072	      3.18873452	     51.18573440	     46.92472489	      0.00000000	      0.00000000
     44.32764286	     -5.78244016	     -6.19558088	     -7.36375261	      0.97038479	      0.92877316	      0.39560626	     29.25230569	     -2.01823013	     -1.90647813	     49.79595728	     49.79595728	      4.55274971	    -11.16748944	     -7.80842606	     12.49543826	     -5.45423548	     -8.35301738	     23.63991534	     23.63991534	     18.28725273	    -16.00566249	      5.80213193	    -11.49359187	      8.91032047	      2.01425384	     -4.11740077	    -11.34085386	    -21.46353496	     21.09041068	     46.55188983	      0.00000000	      0.00000000	     32.52366087	    -21.03037695	      0.43442015	     55.33187111	     47.20414589	      0.00000000	      0.00000000
     44.34742857	     -6.09443183	     -6.34836540	     -8.09272430	      0.96931914	      0.92997462	      0.39779846	     29.33565882	     -1.44689313	     -2.22430302	     44.69275961	     44.69275961	      5.20036589	     -9.00632129	     -7.96134125	     11.68526737	     -5.75000231	     -9.09045575	     22.42991859	     22.42991859	     18.21247829	    -15.65861034	      5.94702782	    -11.38461093	      9.08734793	      1.95873154	     -5.68659624	    -11.18747873	    -21.37695384	     20.55154902	     46.56301594	      0.00000000	      0.00000000	     33.73568888	    -21.80281475	      0.01503972	     56.08091154	     47.25582003	      0.00000000	      0.00000000
     44.36721429	     -6.31502095	     -6.36306740	     -8.82891455	      0.96840256	      0.93078291	      0.40022433	     29.03395905	     -1.07571948	     -2.78692295	     39.13600839	     39.13600839	      5.57942730	     -5.80110435	     -8.26741342	     10.79481051	     -5.88984960	     -9.89573292	     21.25564808	     21.25564808	     18.09053638	    -15.33895829	      5.77561048	    -11.41697881	      9.05007256	      2.18331756	     -7.29418537	    -10.94836261	    -21.24353738	     20.38637447	     46.55710743	      0.00000000	      0.00000000	     35.02334224	    -22.42692985	     -0.67900833	     57.53688986	     47.33964450	      0.00000000	      0.00000000
     44.38700000	     -6.76705140	     -6.44099179	     -9.47177146	      0.96753256	      0.93083309	      0.40297111	     28.62929198	     -0.41559246	     -3.25781943	     33.19938256	     33.19938256	      5.56130766	     -2.89137957	     -7.59793848	     10.32858810	     -6.15505184	    -10.50742485	     20.41547528	     20.41547528	     18.06748123	    -15.12740025	      5.62204913	    -11.11089700	      9.15698587	      2.14969054	     -8.59020142	    -10.72187260	    -21.21180449	     20.32286981	     46.55013064	      0.00000000	      0.00000000	     36.11571705	    -23.14486803	     -1.19907610	     58.55092806	     47.40148929	      0.00000000	      0.00000000
     44.40678571	     -6.86111641	     -6.38097079	    -10.05792990	      0.96720043	      0.93074065	      0.40581397	     27.65396243	     -0.01659157	     -4.07751886	     27.33727588	     27.33727588	      5.42294985	      1.16933275	     -6.47729043	      9.48769166	     -6.22182446	    -11.22742640	     19.63463478	     19.63463478	     18.07787665	    -14.83449193	      5.16270271	    -11.20191520	      9.04270220	      2.29313134	     -9.92319516	    -10.54904632	    -21.16951238	     20.61786544	     46.52689925	      0.00000000	      0.00000000	     37.23990283	    -23.73866897	     -1.94522467	     60.05685346	     47.48756570	      0.00000000	      0.00000000
     44.42657143	     -7.01165518	     -6.11600128	    -10.60152386	      0.96713843	      0.92977812	      0.40875051	     27.08308291	      0.11198231	     -5.26235265	     22.68762043	     22.68762043	      6.35806902	      6.18208137	     -1.67127054	      8.74293675	     -6.07044045	    -11.94448261	     18.82649144	     18.82649144	     17.40259314	    -14.85801588	      2.82432363	    -11.19119192	      8.70323531	      2.04596448	    -11.74265407	    -10.30517260	    -20.32155521	     23.60088770	     46.33406563	      0.00000000	      0.00000000	     37.47276009	    -24.28485940	     -4.40232115	     63.25055811	     47.71942097	      0.00000000	      0.00000000
